<?xml version="1.0" encoding="utf-8"?>
<!-- Generator: Adobe Illustrator 16.0.0, SVG Export Plug-In . SVG Version: 6.00 Build 0)  -->
<!DOCTYPE svg PUBLIC "-//W3C//DTD SVG 1.1//EN" "http://www.w3.org/Graphics/SVG/1.1/DTD/svg11.dtd">
<svg version="1.1" id="Layer_1" xmlns="http://www.w3.org/2000/svg" xmlns:xlink="http://www.w3.org/1999/xlink" x="0px" y="0px"
	 width="126px" height="165.799px" viewBox="0 0 126 165.799" enable-background="new 0 0 126 165.799" xml:space="preserve">
<symbol  id="Foot" viewBox="-17.501 -26.5 35.002 53">
	<g>
		<path fill="#383A5C" d="M0,23.5c8.008,0,14.5-10.521,14.5-23.5S14.939-23.5,0-23.5S-14.5-12.979-14.5,0S-8.008,23.5,0,23.5z"/>
		<g opacity="0.6">
			<path d="M0,23.5c8.008,0,14.5-10.521,14.5-23.5S14.939-23.5,0-23.5S-14.5-12.979-14.5,0S-8.008,23.5,0,23.5 M0,26.5
				c-9.813,0-17.5-11.64-17.5-26.5l0-1.079c-0.006-6.421-0.012-12.485,2.062-17.117C-12.936-23.784-7.886-26.5,0-26.5
				s12.936,2.716,15.438,8.304C17.513-13.564,17.507-7.5,17.5-1.079L17.5,0C17.5,14.86,9.813,26.5,0,26.5L0,26.5z"/>
		</g>
	</g>
</symbol>
<symbol  id="Hand" viewBox="-14.161 -19.766 28.321 39.533">
	<g>
		<path fill="#D0B971" d="M11.16,0c0-9.26-4.997-16.766-11.16-16.766C-6.164-16.766-11.161-9.26-11.161,0
			c0,9.26,4.997,16.767,11.161,16.767C6.163,16.767,11.16,9.26,11.16,0z"/>
		<g opacity="0.6">
			<path d="M0,16.767C6.163,16.767,11.16,9.26,11.16,0c0-9.26-4.997-16.766-11.16-16.766C-6.164-16.766-11.161-9.26-11.161,0
				C-11.161,9.26-6.164,16.767,0,16.767 M0,19.767c-7.94,0-14.161-8.683-14.161-19.767S-7.94-19.766,0-19.766S14.16-11.084,14.16,0
				S7.94,19.767,0,19.767L0,19.767z"/>
		</g>
	</g>
</symbol>
<use xlink:href="#Foot"  width="35.002" height="53" x="-17.501" y="-26.5" transform="matrix(1 0 0 -1 89.3506 139.2988)" overflow="visible"/>
<use xlink:href="#Foot"  width="35.002" height="53" x="-17.501" y="-26.5" transform="matrix(1 0 0 -1 36.625 95.2993)" overflow="visible"/>
<use xlink:href="#Hand"  width="28.321" height="39.533" x="-14.161" y="-19.766" transform="matrix(0.8745 -0.485 -0.485 -0.8745 108.71 95.2993)" overflow="visible"/>
<use xlink:href="#Hand"  width="28.321" height="39.533" x="-14.161" y="-19.766" transform="matrix(0.9018 0.4322 0.4322 -0.9018 72.6816 71.7998)" overflow="visible"/>
<g id="Torso">
	<path fill="#5E65CC" d="M122,124.139l-10.823,21.502H14.824L4,124.139l10.824-21.502h96.353L122,124.139z"/>
	<g opacity="0.6">
		<path d="M111.177,102.636L122,124.139l-10.823,21.502H14.824L4,124.139l10.824-21.502H111.177 M111.177,98.636H14.824
			c-1.511,0-2.894,0.852-3.573,2.202L0.427,122.34c-0.57,1.131-0.57,2.465,0,3.597l10.824,21.502
			c0.679,1.35,2.062,2.201,3.573,2.201h96.353c1.511,0,2.894-0.852,3.573-2.201l10.823-21.502c0.569-1.132,0.569-2.466,0-3.597
			l-10.823-21.502C114.07,99.488,112.688,98.636,111.177,98.636L111.177,98.636z"/>
	</g>
</g>
<g id="Gun">
	<g>
		<path fill="#797979" d="M100.454,88.128l-0.791-6.583h-12.65l-0.791,6.583l1.654,11.171H98.8L100.454,88.128z"/>
		<g opacity="0.5">
			<path fill="#797979" d="M99.663,81.545l0.791,6.583L98.8,99.299H87.876l-1.654-11.171l0.791-6.583H99.663 M99.663,76.545h-12.65
				c-2.53,0-4.662,1.891-4.964,4.403l-0.791,6.583c-0.054,0.442-0.048,0.889,0.018,1.329l1.654,11.171
				c0.363,2.452,2.468,4.268,4.946,4.268H98.8c2.479,0,4.583-1.816,4.946-4.268L105.4,88.86c0.065-0.44,0.071-0.887,0.018-1.329
				l-0.791-6.583C104.325,78.436,102.193,76.545,99.663,76.545L99.663,76.545z"/>
		</g>
		<g opacity="0.8">
			<path d="M99.663,81.545l0.791,6.583L98.8,99.299H87.876l-1.654-11.171l0.791-6.583H99.663 M99.663,78.545h-12.65
				c-1.519,0-2.798,1.134-2.979,2.642l-0.791,6.583c-0.032,0.265-0.028,0.533,0.011,0.797l1.654,11.171
				c0.218,1.471,1.48,2.561,2.968,2.561H98.8c1.487,0,2.75-1.089,2.968-2.561l1.654-11.171c0.039-0.264,0.043-0.532,0.011-0.797
				l-0.791-6.583C102.461,79.679,101.182,78.545,99.663,78.545L99.663,78.545z"/>
		</g>
	</g>
	<g>
		<path fill="#797979" d="M101.642,57.456l-3.955,8.878h-8.697l-3.953-8.878l5.535-12.912V25.175L89.78,5h7.115l-0.789,20.175
			v19.369L101.642,57.456z"/>
		<g opacity="0.5">
			<path fill="#797979" d="M96.896,5l-0.789,20.175v19.369l5.535,12.912l-3.955,8.878h-8.697l-3.953-8.878l5.535-12.912V25.175
				L89.78,5H96.896 M96.896,0H89.78c-1.36,0-2.661,0.554-3.604,1.534c-0.942,0.98-1.445,2.303-1.392,3.662l0.787,20.078v18.244
				L80.44,55.486c-0.549,1.28-0.538,2.731,0.028,4.004l3.953,8.878c0.803,1.804,2.593,2.966,4.567,2.966h8.697
				c1.975,0,3.764-1.162,4.567-2.965l3.955-8.878c0.566-1.272,0.577-2.724,0.028-4.005l-5.131-11.968V25.273l0.785-20.078
				c0.054-1.359-0.449-2.681-1.393-3.661C99.557,0.554,98.256,0,96.896,0L96.896,0z"/>
		</g>
		<g opacity="0.8">
			<path d="M96.896,5l-0.789,20.175v19.369l5.535,12.912l-3.955,8.878h-8.697l-3.953-8.878l5.535-12.912V25.175L89.78,5H96.896
				 M96.896,2H89.78c-0.816,0-1.597,0.333-2.162,0.92c-0.566,0.588-0.867,1.382-0.836,2.197l0.789,20.116v18.694l-5.292,12.346
				c-0.33,0.768-0.323,1.639,0.017,2.402l3.953,8.878c0.481,1.083,1.556,1.78,2.74,1.78h8.697c1.185,0,2.259-0.697,2.74-1.779
				l3.955-8.878c0.34-0.764,0.347-1.634,0.017-2.403l-5.292-12.346V25.234l0.787-20.117c0.031-0.815-0.271-1.608-0.836-2.197
				C98.492,2.333,97.712,2,96.896,2L96.896,2z"/>
		</g>
	</g>
	<g>
		<path fill="#797979" d="M110.339,73.112l-3.953,6.457H80.292l-3.953-6.457l6.324-11.298h21.35L110.339,73.112z"/>
		<g opacity="0.5">
			<path fill="#797979" d="M104.013,61.814l6.326,11.298l-3.953,6.457H80.292l-3.953-6.457l6.324-11.298H104.013 M104.013,56.814
				h-21.35c-1.811,0-3.479,0.979-4.363,2.558l-6.324,11.298c-0.883,1.578-0.846,3.511,0.099,5.053l3.953,6.457
				c0.909,1.484,2.524,2.389,4.265,2.389h26.094c1.74,0,3.355-0.905,4.265-2.389l3.953-6.457c0.944-1.543,0.981-3.476,0.098-5.054
				l-6.326-11.298C107.491,57.792,105.822,56.814,104.013,56.814L104.013,56.814z"/>
		</g>
		<g opacity="0.8">
			<path d="M104.013,61.814l6.326,11.298l-3.953,6.457H80.292l-3.953-6.457l6.324-11.298H104.013 M104.013,58.814h-21.35
				c-1.086,0-2.087,0.587-2.618,1.535l-6.324,11.298c-0.529,0.947-0.507,2.106,0.06,3.032l3.953,6.457
				c0.545,0.891,1.515,1.434,2.559,1.434h26.094c1.044,0,2.014-0.543,2.559-1.434l3.953-6.457c0.566-0.926,0.589-2.085,0.059-3.032
				l-6.326-11.298C106.1,59.401,105.099,58.814,104.013,58.814L104.013,58.814z"/>
		</g>
	</g>
</g>
<g id="head_base">
	<radialGradient id="SVGID_1_" cx="63" cy="112.7979" r="41.2473" gradientUnits="userSpaceOnUse">
		<stop  offset="0" style="stop-color:#757FFF"/>
		<stop  offset="0.57" style="stop-color:#616BFF"/>
		<stop  offset="1" style="stop-color:#757FFF"/>
	</radialGradient>
	<path fill="url(#SVGID_1_)" d="M63,71.799l41.495,31.32l-15.85,50.678h-51.29l-15.849-50.678L63,71.799z"/>
	<g opacity="0.6">
		<path d="M63,71.799l41.495,31.32l-15.85,50.678h-51.29l-15.849-50.678L63,71.799 M63,67.799c-0.849,0-1.697,0.269-2.41,0.808
			l-41.494,31.32c-1.349,1.018-1.913,2.773-1.408,4.386l15.849,50.678c0.522,1.669,2.069,2.806,3.818,2.806h51.29
			c1.749,0,3.296-1.137,3.817-2.806l15.85-50.678c0.505-1.613-0.059-3.369-1.407-4.387l-41.495-31.32
			C64.696,68.068,63.848,67.799,63,67.799L63,67.799z"/>
	</g>
</g>
<g id="head_top">
	<radialGradient id="SVGID_2_" cx="63" cy="116.3672" r="33.8744" gradientUnits="userSpaceOnUse">
		<stop  offset="0" style="stop-color:#757FFF"/>
		<stop  offset="0.57" style="stop-color:#616BFF"/>
		<stop  offset="1" style="stop-color:#757FFF"/>
	</radialGradient>
	<path fill="url(#SVGID_2_)" d="M63,83.353l34.713,25.221l-13.26,40.809H41.546l-13.259-40.809L63,83.353z"/>
	<g opacity="0.6">
		<path d="M63,83.353l34.713,25.221l-13.26,40.809H41.546l-13.259-40.809L63,83.353 M63,81.353c-0.413,0-0.825,0.127-1.176,0.382
			l-34.713,25.221c-0.701,0.509-0.994,1.412-0.727,2.236L39.644,150c0.268,0.824,1.036,1.382,1.902,1.382h42.907
			c0.866,0,1.635-0.558,1.902-1.382l13.26-40.809c0.268-0.824-0.025-1.727-0.727-2.236L64.176,81.734
			C63.825,81.48,63.413,81.353,63,81.353L63,81.353z"/>
	</g>
</g>
</svg>
