<?xml version="1.0" encoding="utf-8"?>
<!-- Generator: Adobe Illustrator 16.0.0, SVG Export Plug-In . SVG Version: 6.00 Build 0)  -->
<!DOCTYPE svg PUBLIC "-//W3C//DTD SVG 1.1//EN" "http://www.w3.org/Graphics/SVG/1.1/DTD/svg11.dtd">
<svg version="1.1" id="Layer_1" xmlns="http://www.w3.org/2000/svg" xmlns:xlink="http://www.w3.org/1999/xlink" x="0px" y="0px"
	 width="165.799px" height="126px" viewBox="0 0 165.799 126" enable-background="new 0 0 165.799 126" xml:space="preserve">
<symbol  id="Foot" viewBox="-17.501 -26.5 35.002 53">
	<g>
		<path fill="#383A5C" d="M0,23.5c8.008,0,14.5-10.521,14.5-23.5S14.939-23.5,0-23.5S-14.5-12.979-14.5,0S-8.008,23.5,0,23.5z"/>
		<g opacity="0.6">
			<path d="M0,23.5c8.008,0,14.5-10.521,14.5-23.5S14.939-23.5,0-23.5S-14.5-12.979-14.5,0S-8.008,23.5,0,23.5 M0,26.5
				c-9.813,0-17.5-11.64-17.5-26.5l0-1.079c-0.006-6.421-0.012-12.485,2.062-17.117C-12.936-23.784-7.886-26.5,0-26.5
				s12.936,2.716,15.438,8.304C17.513-13.564,17.507-7.5,17.5-1.079L17.5,0C17.5,14.86,9.813,26.5,0,26.5L0,26.5z"/>
		</g>
	</g>
</symbol>
<symbol  id="Hand" viewBox="-14.161 -19.766 28.321 39.533">
	<g>
		<path fill="#D0B971" d="M11.16,0c0-9.26-4.997-16.766-11.16-16.766C-6.164-16.766-11.161-9.26-11.161,0
			c0,9.26,4.997,16.767,11.161,16.767C6.163,16.767,11.16,9.26,11.16,0z"/>
		<g opacity="0.6">
			<path d="M0,16.767C6.163,16.767,11.16,9.26,11.16,0c0-9.26-4.997-16.766-11.16-16.766C-6.164-16.766-11.161-9.26-11.161,0
				C-11.161,9.26-6.164,16.767,0,16.767 M0,19.767c-7.94,0-14.161-8.683-14.161-19.767S-7.94-19.766,0-19.766S14.16-11.084,14.16,0
				S7.94,19.767,0,19.767L0,19.767z"/>
		</g>
	</g>
</symbol>
<use xlink:href="#Foot"  width="35.002" height="53" x="-17.501" y="-26.5" transform="matrix(-4.371139e-008 1 1 4.371139e-008 26.5 89.3506)" overflow="visible"/>
<use xlink:href="#Foot"  width="35.002" height="53" x="-17.501" y="-26.5" transform="matrix(-4.371139e-008 1 1 4.371139e-008 70.4995 36.625)" overflow="visible"/>
<use xlink:href="#Hand"  width="28.321" height="39.533" x="-14.161" y="-19.766" transform="matrix(0.485 0.8745 0.8745 -0.485 70.4995 108.71)" overflow="visible"/>
<use xlink:href="#Hand"  width="28.321" height="39.533" x="-14.161" y="-19.766" transform="matrix(-0.4322 0.9018 0.9018 0.4322 93.999 72.6816)" overflow="visible"/>
<g id="Torso">
	<path fill="#5E65CC" d="M41.66,122l-21.502-10.823V14.824L41.66,4l21.502,10.824v96.353L41.66,122z"/>
	<g opacity="0.6">
		<path d="M41.66,4l21.502,10.824v96.353L41.66,122l-21.502-10.823V14.824L41.66,4 M41.66,0c-0.617,0-1.233,0.143-1.798,0.427
			L18.36,11.251c-1.35,0.679-2.202,2.062-2.202,3.573v96.353c0,1.511,0.852,2.894,2.202,3.573l21.502,10.823
			c0.565,0.284,1.182,0.427,1.798,0.427s1.233-0.143,1.798-0.427l21.502-10.823c1.35-0.68,2.202-2.063,2.202-3.573V14.824
			c0-1.511-0.852-2.894-2.202-3.573L43.458,0.427C42.893,0.143,42.276,0,41.66,0L41.66,0z"/>
	</g>
</g>
<g id="Gun">
	<g>
		<path fill="#797979" d="M77.671,100.454l6.583-0.791v-12.65l-6.583-0.791L66.5,87.876V98.8L77.671,100.454z"/>
		<g opacity="0.5">
			<path fill="#797979" d="M77.671,86.222l6.583,0.791v12.65l-6.583,0.791L66.5,98.8V87.876L77.671,86.222 M77.671,81.222
				c-0.245,0-0.49,0.018-0.732,0.054L65.767,82.93c-2.452,0.363-4.268,2.468-4.268,4.946V98.8c0,2.479,1.816,4.583,4.268,4.946
				l11.171,1.654c0.243,0.036,0.488,0.054,0.732,0.054c0.199,0,0.398-0.012,0.597-0.036l6.583-0.791
				c2.513-0.302,4.403-2.433,4.403-4.964v-12.65c0-2.531-1.891-4.663-4.403-4.964l-6.583-0.791
				C78.069,81.233,77.87,81.222,77.671,81.222L77.671,81.222z"/>
		</g>
		<g opacity="0.8">
			<path d="M77.671,86.222l6.583,0.791v12.65l-6.583,0.791L66.5,98.8V87.876L77.671,86.222 M77.671,83.222
				c-0.147,0-0.294,0.011-0.439,0.032L66.06,84.908c-1.471,0.218-2.561,1.48-2.561,2.968V98.8c0,1.487,1.089,2.75,2.561,2.968
				l11.171,1.654c0.146,0.021,0.292,0.032,0.439,0.032c0.12,0,0.239-0.007,0.358-0.021l6.583-0.791
				c1.507-0.181,2.642-1.46,2.642-2.979v-12.65c0-1.519-1.135-2.797-2.642-2.979l-6.583-0.791
				C77.91,83.229,77.791,83.222,77.671,83.222L77.671,83.222z"/>
		</g>
	</g>
	<g>
		<path fill="#797979" d="M108.343,101.642l-8.878-3.955v-8.697l8.878-3.953l12.912,5.535h19.369l20.175-0.791v7.115l-20.175-0.789
			h-19.369L108.343,101.642z"/>
		<g opacity="0.5">
			<path fill="#797979" d="M108.343,85.036l12.912,5.535h19.369l20.175-0.791v7.115l-20.175-0.789h-19.369l-12.912,5.535
				l-8.878-3.955v-8.697L108.343,85.036 M108.343,80.036c-0.693,0-1.387,0.144-2.034,0.432l-8.878,3.954
				c-1.804,0.803-2.966,2.593-2.966,4.567v8.697c0,1.975,1.162,3.764,2.965,4.567l8.878,3.955c0.647,0.288,1.342,0.433,2.035,0.433
				c0.67,0,1.341-0.135,1.97-0.404l11.969-5.131h18.245l20.077,0.785c0.065,0.002,0.131,0.004,0.195,0.004
				c1.29,0,2.532-0.499,3.466-1.396c0.98-0.943,1.534-2.244,1.534-3.604V89.78c0-1.36-0.554-2.662-1.534-3.604
				c-0.934-0.897-2.176-1.396-3.466-1.396c-0.065,0-0.13,0.001-0.196,0.004l-20.076,0.787h-18.245l-11.969-5.131
				C109.684,80.171,109.013,80.036,108.343,80.036L108.343,80.036z"/>
		</g>
		<g opacity="0.8">
			<path d="M108.343,85.036l12.912,5.535h19.369l20.175-0.791v7.115l-20.175-0.789h-19.369l-12.912,5.535l-8.878-3.955v-8.697
				L108.343,85.036 M108.343,82.036c-0.416,0-0.832,0.086-1.221,0.259l-8.878,3.953c-1.082,0.482-1.779,1.556-1.779,2.741v8.697
				c0,1.185,0.697,2.258,1.779,2.74l8.878,3.955c0.389,0.173,0.805,0.26,1.221,0.26c0.402,0,0.805-0.081,1.182-0.242l12.347-5.293
				h18.694l20.116,0.787c0.039,0.001,0.078,0.002,0.117,0.002c0.773,0,1.52-0.299,2.079-0.837c0.589-0.566,0.921-1.347,0.921-2.163
				V89.78c0-0.816-0.332-1.597-0.921-2.163c-0.56-0.538-1.306-0.837-2.079-0.837c-0.039,0-0.078,0.001-0.117,0.002l-20.116,0.789
				h-18.694l-12.347-5.292C109.147,82.117,108.745,82.036,108.343,82.036L108.343,82.036z"/>
		</g>
	</g>
	<g>
		<path fill="#797979" d="M92.687,110.339l-6.457-3.953V80.292l6.457-3.953l11.299,6.324v21.35L92.687,110.339z"/>
		<g opacity="0.5">
			<path fill="#797979" d="M92.687,76.339l11.299,6.324v21.35l-11.299,6.326l-6.457-3.953V80.292L92.687,76.339 M92.687,71.339
				c-0.906,0-1.811,0.246-2.61,0.736l-6.457,3.953c-1.484,0.909-2.39,2.524-2.39,4.264v26.094c0,1.74,0.905,3.355,2.39,4.265
				l6.457,3.953c0.8,0.489,1.705,0.735,2.61,0.735c0.841,0,1.683-0.212,2.442-0.638l11.299-6.326
				c1.579-0.884,2.558-2.553,2.558-4.362v-21.35c0-1.81-0.979-3.479-2.558-4.363l-11.299-6.324
				C94.369,71.551,93.527,71.339,92.687,71.339L92.687,71.339z"/>
		</g>
		<g opacity="0.8">
			<path d="M92.687,76.339l11.299,6.324v21.35l-11.299,6.326l-6.457-3.953V80.292L92.687,76.339 M92.687,73.339
				c-0.544,0-1.086,0.147-1.566,0.441l-6.457,3.953c-0.891,0.545-1.434,1.514-1.434,2.559v26.094c0,1.044,0.543,2.014,1.434,2.559
				l6.457,3.953c0.479,0.294,1.023,0.441,1.566,0.441c0.505,0,1.01-0.127,1.466-0.383l11.299-6.326
				c0.947-0.53,1.534-1.531,1.534-2.617v-21.35c0-1.086-0.587-2.087-1.535-2.618l-11.299-6.324
				C93.696,73.466,93.191,73.339,92.687,73.339L92.687,73.339z"/>
		</g>
	</g>
</g>
<g id="head_base">
	
		<radialGradient id="SVGID_1_" cx="79.1807" cy="91.6182" r="41.2468" gradientTransform="matrix(-4.371139e-008 1 -1 -4.371139e-008 144.6187 -16.1807)" gradientUnits="userSpaceOnUse">
		<stop  offset="0" style="stop-color:#757FFF"/>
		<stop  offset="0.57" style="stop-color:#616BFF"/>
		<stop  offset="1" style="stop-color:#757FFF"/>
	</radialGradient>
	<path fill="url(#SVGID_1_)" d="M93.999,63L62.68,104.494l-50.678-15.85v-51.29L62.68,21.506L93.999,63z"/>
	<g opacity="0.6">
		<path d="M62.68,21.506L93.999,63L62.68,104.494l-50.678-15.85v-51.29L62.68,21.506 M62.679,17.506c-0.398,0-0.8,0.059-1.193,0.182
			L10.808,33.537c-1.669,0.522-2.806,2.069-2.806,3.818v51.29c0,1.749,1.137,3.295,2.806,3.818l50.678,15.849
			c0.394,0.123,0.795,0.183,1.193,0.183c1.232,0,2.423-0.57,3.193-1.59l31.319-41.495c1.077-1.426,1.077-3.393,0-4.819
			L65.873,19.096C65.103,18.077,63.912,17.506,62.679,17.506L62.679,17.506z"/>
	</g>
</g>
<g id="head_top">
	
		<radialGradient id="SVGID_2_" cx="79.1807" cy="95.1875" r="33.8744" gradientTransform="matrix(-4.371139e-008 1 -1 -4.371139e-008 144.6187 -16.1807)" gradientUnits="userSpaceOnUse">
		<stop  offset="0" style="stop-color:#757FFF"/>
		<stop  offset="0.57" style="stop-color:#616BFF"/>
		<stop  offset="1" style="stop-color:#757FFF"/>
	</radialGradient>
	<path fill="url(#SVGID_2_)" d="M82.446,63L57.226,97.713l-40.809-13.26V41.546l40.809-13.259L82.446,63z"/>
	<g opacity="0.6">
		<path d="M57.226,28.287L82.446,63L57.226,97.713l-40.809-13.26V41.546L57.226,28.287 M57.225,26.287
			c-0.206,0-0.414,0.032-0.618,0.098L15.799,39.644c-0.824,0.268-1.382,1.036-1.382,1.902v42.907c0,0.866,0.558,1.634,1.382,1.902
			l40.809,13.26c0.204,0.066,0.412,0.098,0.618,0.098c0.628,0,1.235-0.296,1.619-0.824l25.221-34.713
			c0.509-0.701,0.509-1.65,0-2.352L58.844,27.111C58.46,26.583,57.854,26.287,57.225,26.287L57.225,26.287z"/>
	</g>
</g>
</svg>
