<?xml version="1.0" encoding="utf-8"?>
<!-- Generator: Adobe Illustrator 16.0.0, SVG Export Plug-In . SVG Version: 6.00 Build 0)  -->
<!DOCTYPE svg PUBLIC "-//W3C//DTD SVG 1.1//EN" "http://www.w3.org/Graphics/SVG/1.1/DTD/svg11.dtd">
<svg version="1.1" id="Layer_1" xmlns="http://www.w3.org/2000/svg" xmlns:xlink="http://www.w3.org/1999/xlink" x="0px" y="0px"
	 width="188.016px" height="188.019px" viewBox="0 0 188.016 188.019" enable-background="new 0 0 188.016 188.019"
	 xml:space="preserve">
<g>
	<radialGradient id="SVGID_1_" cx="94.0083" cy="94.0093" r="92.9734" gradientUnits="userSpaceOnUse">
		<stop  offset="0" style="stop-color:#B22923"/>
		<stop  offset="0.5269" style="stop-color:#CC504B"/>
		<stop  offset="1" style="stop-color:#B22923"/>
	</radialGradient>
	<path fill="url(#SVGID_1_)" d="M69.096,186.983c10.281-38.371-15.06-53.003-43.149-24.915
		c28.089-28.088,13.458-53.429-24.912-43.147c38.37-10.281,38.37-39.543,0-49.824c38.37,10.281,53.001-15.06,24.912-43.149
		c28.089,28.089,53.43,13.458,43.149-24.913c10.281,38.37,39.543,38.37,49.824,0c-10.281,38.37,15.06,53.001,43.147,24.913
		c-28.088,28.089-13.456,53.43,24.913,43.149c-38.369,10.281-38.369,39.543,0,49.824c-38.369-10.281-53.001,15.06-24.913,43.147
		c-28.088-28.088-53.429-13.456-43.147,24.915C108.639,148.612,79.377,148.612,69.096,186.983z"/>
	<g opacity="0.6">
		<path fill="#231F20" d="M118.92,1.035c-6.609,24.667,1.506,39.525,15.606,39.525c7.832,0,17.511-4.582,27.541-14.613
			c-23.72,23.721-16.969,45.485,8.811,45.485c4.748,0,10.136-0.737,16.103-2.336c-38.369,10.281-38.369,39.543,0,49.824
			c-5.965-1.599-11.356-2.336-16.103-2.336c-25.784,0-32.532,21.762-8.811,45.483c-10.029-10.029-19.709-14.611-27.541-14.612
			c-14.103,0-22.217,14.856-15.606,39.527c-5.141-19.186-15.026-28.778-24.912-28.778s-19.771,9.593-24.912,28.778
			c6.61-24.668-1.506-39.524-15.607-39.527c-7.833-0.001-17.511,4.582-27.542,14.612c23.721-23.72,16.971-45.48-8.809-45.483
			c-4.748,0-10.136,0.737-16.103,2.336c38.37-10.281,38.37-39.543,0-49.824C7,70.695,12.392,71.433,17.138,71.433
			c25.785,0,32.532-21.763,8.81-45.485c10.029,10.029,19.71,14.613,27.542,14.613c14.104,0,22.217-14.855,15.607-39.525
			c5.141,19.185,15.026,28.777,24.912,28.777S113.78,20.22,118.92,1.035 M115.057,0c-4.267,15.922-12.332,25.813-21.049,25.813
			S77.226,15.922,72.96,0l-7.728,2.07c3.459,12.909,2.805,23.75-1.793,29.743c-2.417,3.15-5.765,4.747-9.95,4.747
			c-7.269,0-16.046-4.773-24.713-13.441l-5.657,5.657c10.995,10.995,15.664,22.135,12.488,29.801
			c-2.331,5.627-9.063,8.855-18.469,8.855c-4.551,0-9.621-0.74-15.067-2.2l-1.035,3.864L0,72.96
			c15.922,4.266,25.813,12.332,25.813,21.048S15.922,110.791,0,115.058l1.035,3.863l1.035,3.863
			c5.447-1.459,10.515-2.199,15.063-2.199c9.41,0.001,16.141,3.229,18.472,8.857c3.174,7.666-1.493,18.805-12.486,29.798
			l5.657,5.656c8.668-8.667,17.443-13.44,24.71-13.44c4.187,0.001,7.534,1.599,9.952,4.75c4.599,5.994,5.253,16.835,1.795,29.742
			l3.864,1.035l3.864,1.035c4.266-15.922,12.332-25.813,21.048-25.813s16.782,9.892,21.049,25.813l7.727-2.07
			c-3.459-12.91-2.805-23.752,1.795-29.745c2.417-3.15,5.764-4.747,9.948-4.747c7.27,0.001,16.046,4.773,24.713,13.44l5.656-5.656
			c-10.994-10.994-15.662-22.135-12.486-29.8c2.331-5.628,9.063-8.855,18.469-8.855c4.552,0,9.621,0.74,15.067,2.199l1.035-3.863
			l1.035-3.863c-15.921-4.267-25.812-12.332-25.812-21.049s9.891-16.782,25.812-21.048l-1.035-3.864l-1.035-3.864
			c-5.446,1.459-10.516,2.2-15.067,2.2c-9.404,0-16.135-3.228-18.467-8.856c-3.176-7.667,1.491-18.807,12.484-29.8l-2.828-2.828
			l-2.828-2.829c-8.668,8.668-17.444,13.441-24.713,13.441c-4.184,0-7.53-1.597-9.947-4.747c-4.6-5.994-5.254-16.835-1.796-29.743
			l-3.863-1.035L115.057,0L115.057,0z"/>
	</g>
</g>
<g>
	<radialGradient id="SVGID_2_" cx="94.0083" cy="94.0088" r="51.0781" gradientUnits="userSpaceOnUse">
		<stop  offset="0" style="stop-color:#B22923"/>
		<stop  offset="0.5269" style="stop-color:#CC504B"/>
		<stop  offset="1" style="stop-color:#B22923"/>
	</radialGradient>
	<path fill="url(#SVGID_2_)" d="M80.322,145.087c5.648-21.08-8.274-29.119-23.706-13.688c15.432-15.432,7.394-29.354-13.686-23.705
		c21.08-5.648,21.08-21.724,0-27.372c21.08,5.648,29.118-8.273,13.686-23.705c15.432,15.432,29.354,7.394,23.706-13.687
		c5.648,21.08,21.724,21.08,27.372,0c-5.648,21.08,8.274,29.118,23.706,13.687c-15.432,15.432-7.394,29.354,13.687,23.705
		c-21.08,5.648-21.08,21.724,0,27.372c-21.08-5.648-29.118,8.273-13.687,23.705c-15.432-15.432-29.354-7.393-23.706,13.688
		C102.045,124.007,85.97,124.007,80.322,145.087z"/>
	<g opacity="0.6">
		<path fill="#231F20" d="M107.694,42.931c-3.631,13.552,0.827,21.715,8.574,21.715c4.304,0,9.621-2.518,15.132-8.028
			c-13.032,13.032-9.323,24.988,4.84,24.988c2.608,0,5.568-0.405,8.847-1.283c-21.08,5.648-21.08,21.724,0,27.372
			c-3.277-0.878-6.239-1.283-8.847-1.283c-14.166,0-17.872,11.956-4.84,24.988c-5.51-5.51-10.828-8.027-15.131-8.028
			c-7.749,0-12.207,8.162-8.575,21.716c-2.824-10.54-8.255-15.811-13.686-15.811s-10.862,5.271-13.686,15.811
			c3.631-13.552-0.828-21.714-8.575-21.716c-4.303,0-9.62,2.518-15.131,8.028c13.032-13.032,9.324-24.986-4.839-24.988
			c-2.608,0-5.568,0.404-8.847,1.283c21.08-5.648,21.08-21.724,0-27.372c3.277,0.878,6.239,1.283,8.847,1.283
			c14.166,0,17.872-11.956,4.839-24.988c5.51,5.51,10.829,8.028,15.131,8.028c7.749,0,12.206-8.162,8.574-21.715
			c2.824,10.54,8.255,15.81,13.686,15.81S104.87,53.471,107.694,42.931 M84.186,41.896l-7.728,2.07
			c1.729,6.45,1.476,11.974-0.674,14.777c-0.982,1.28-2.303,1.903-4.036,1.903c-3.461,0-7.945-2.5-12.303-6.857l-5.657,5.657
			c6.485,6.484,7.594,11.694,6.47,14.408c-0.987,2.384-4.079,3.752-8.481,3.752c-2.343,0-4.971-0.386-7.812-1.147l-1.035,3.864
			l-1.035,3.864c7.803,2.091,12.845,5.946,12.845,9.822c0,3.875-5.042,7.731-12.845,9.823l1.035,3.863l1.035,3.863
			c2.84-0.761,5.468-1.146,7.809-1.146c4.404,0,7.495,1.368,8.483,3.753c1.124,2.714,0.015,7.924-6.469,14.407l5.657,5.656
			c4.357-4.357,8.841-6.856,12.301-6.856c1.734,0.001,3.055,0.623,4.037,1.904c2.151,2.804,2.403,8.327,0.675,14.776l7.728,2.07
			c2.091-7.803,5.946-12.846,9.822-12.846c3.875,0,7.732,5.043,9.823,12.846l3.863-1.035l3.863-1.035
			c-1.728-6.45-1.476-11.975,0.675-14.777c0.983-1.28,2.304-1.903,4.036-1.903c3.462,0.001,7.946,2.5,12.304,6.856l5.656-5.656
			c-6.484-6.484-7.594-11.694-6.47-14.408c0.987-2.385,4.079-3.752,8.481-3.752c2.343,0,4.972,0.386,7.812,1.146l1.035-3.863
			l1.035-3.863c-7.803-2.092-12.846-5.947-12.846-9.823c0-3.876,5.043-7.731,12.846-9.822l-1.035-3.864l-1.035-3.864
			c-2.841,0.761-5.469,1.147-7.812,1.147c-4.401,0-7.492-1.368-8.48-3.752c-1.124-2.714-0.015-7.924,6.469-14.407l-5.656-5.657
			c-4.357,4.357-8.842,6.857-12.304,6.857c-1.732,0-3.053-0.623-4.035-1.903c-2.151-2.803-2.403-8.327-0.676-14.776l-3.863-1.035
			l-3.863-1.035c-2.092,7.803-5.947,12.845-9.823,12.845C90.132,54.741,86.276,49.699,84.186,41.896L84.186,41.896z"/>
	</g>
</g>
</svg>
